<svg width="114" height="36" viewBox="0 0 114 36" fill="none" xmlns="http://www.w3.org/2000/svg">
<path d="M1.11514 35V28.8486L8.862 7.39576H1.86483V1.16751H15.9937V7.0882L8.1123 28.7717H15.6669V35H1.11514ZM17.224 35L20.4919 1.16751H31.968L35.1783 35H28.777L28.2964 29.5406H24.2212L23.7983 35H17.224ZM24.7017 24.139H27.7774L26.2973 6.93441H25.9897L24.7017 24.139ZM37.2544 35V1.16751H47.6348C49.3648 1.16751 50.672 1.56479 51.5563 2.35934C52.4405 3.14107 53.03 4.24319 53.3248 5.66569C53.6323 7.07538 53.7861 8.73496 53.7861 10.6444C53.7861 12.4899 53.549 13.9636 53.0749 15.0657C52.6135 16.1679 51.7357 16.9304 50.4413 17.3533C51.505 17.5711 52.2483 18.103 52.6712 18.9488C53.1069 19.7818 53.3248 20.8647 53.3248 22.1975V35H46.6544V21.7553C46.6544 20.7686 46.4494 20.1598 46.0393 19.9292C45.642 19.6857 44.9948 19.5639 44.0977 19.5639V35H37.2544ZM44.1362 13.7009H45.7701C46.7057 13.7009 47.1734 12.6821 47.1734 10.6444C47.1734 9.32447 47.0709 8.45944 46.8659 8.04934C46.6608 7.63925 46.2764 7.43421 45.7125 7.43421H44.1362V13.7009ZM56.016 35V1.16751H62.9747L66.0888 17.3725V1.16751H72.6247V35H66.012L62.6287 18.0837V35H56.016ZM83.6971 35.3075C80.9931 35.3075 78.9234 34.4938 77.4881 32.8662C76.0656 31.2259 75.3543 28.8614 75.3543 25.7729V9.70252C75.3543 6.80626 76.0592 4.60843 77.4689 3.10904C78.8914 1.60964 80.9674 0.859946 83.6971 0.859946C86.4268 0.859946 88.4964 1.60964 89.9061 3.10904C91.3286 4.60843 92.0399 6.80626 92.0399 9.70252V25.7729C92.0399 28.8614 91.3222 31.2259 89.8869 32.8662C88.4644 34.4938 86.4011 35.3075 83.6971 35.3075ZM83.7548 29.0793C84.78 29.0793 85.2926 28.0861 85.2926 26.0997V9.58718C85.2926 7.92119 84.7928 7.0882 83.7932 7.0882C82.6655 7.0882 82.1016 7.94041 82.1016 9.64485V26.1382C82.1016 27.189 82.2297 27.9451 82.4861 28.4065C82.7424 28.855 83.1653 29.0793 83.7548 29.0793ZM94.7696 35V1.16751H101.728L104.842 17.3725V1.16751H111.378V35H104.766L101.382 18.0837V35H94.7696Z" fill="black"/>
</svg>
