<svg width="32" height="32" viewBox="0 0 32 32" fill="none" xmlns="http://www.w3.org/2000/svg">
<path d="M18.0667 2.92539V2.82539C18.0667 2.35872 18.2169 1.94184 18.5173 1.57472C18.8169 1.2085 19.2 1.02539 19.6667 1.02539C20.3667 1.02539 20.5507 1.17472 20.9173 1.47472C21.284 1.77472 21.484 2.17472 21.5173 2.67472C21.5502 3.17517 21.4 3.59206 21.0667 3.92539C20.5667 4.42539 20.3333 4.42539 19.8667 4.42539L19.5667 4.52539L19.6667 4.67472L19.5667 5.22539L19.3667 6.82539C19.4333 6.89206 19.4667 6.95872 19.4667 7.02539L19.2667 8.02539C19.2 8.15872 19.1333 8.25872 19.0667 8.32539L18.9667 8.72539C18.7917 9.43229 18.5915 10.1327 18.3667 10.8254V11.0254C18.3 11.3587 18.2502 11.6254 18.2173 11.8254C18.1844 12.0254 18.0676 12.3587 17.8667 12.8254C17.7333 13.0921 17.7333 13.5254 17.8667 14.1254L17.9667 14.2254C17.9667 14.4254 18.0502 14.6587 18.2173 14.9254C18.468 15.3254 18.4667 15.4254 18.4667 15.6254C18.5333 16.9587 18.4333 18.0921 18.1667 19.0254L18.3667 19.6254C19.1667 20.0254 19.4 20.4587 19.0667 20.9254L19.5667 21.1254C20.3667 21.5254 20.9333 21.8752 21.2667 22.1747C21.6 22.4752 21.9333 22.7921 22.2667 23.1254C22.5333 23.1921 22.7333 23.2921 22.8667 23.4254L23.1667 23.5254C24.5667 24.4587 25.9667 25.5921 27.3667 26.9254L27.7667 27.2254V27.3254L27.6667 27.5254L27.9667 27.7254H28.0667C28.2667 27.8587 28.4 27.9254 28.4667 27.9254H28.5667C28.6333 27.9254 28.7 27.8921 28.7667 27.8254L28.9667 27.7254C29.1 27.5921 29.2333 27.4921 29.3667 27.4254H29.7667C29.8333 27.4254 29.8333 27.4587 29.7667 27.5254L29.3667 27.7254L28.8667 28.3254H29.5667L30.2667 28.4254C30.4667 28.3587 30.6333 28.2921 30.7667 28.2254L31.2667 27.9254C31.4667 27.8587 31.6667 27.9254 31.8667 28.1254H31.9667C32.0333 28.1921 32 28.2921 31.8667 28.4254L30.6667 29.5254C30.3333 29.7921 30.0333 29.9587 29.7667 30.0254L28.4667 30.9254C28.4 30.9921 28.3333 30.9921 28.2667 30.9254L27.9667 30.5254L27.7667 30.1254L27.516 29.7747L27.216 29.3747L26.9667 29.0747L26.7667 28.8254L26.3667 28.5254C26.2333 28.5254 26.1 28.4921 25.9667 28.4254L24.6667 27.4254C24.4667 27.4254 24.2333 27.3254 23.9667 27.1254C22.9667 26.2587 22.3 25.7254 21.9667 25.5254L21.3667 25.1254L20.1667 24.9254C19.7667 24.8587 19.2333 24.6587 18.5667 24.3254L17.7667 23.9254C17.2333 23.6587 16.8667 23.5254 16.6667 23.5254L16.2667 23.3254C16 23.2587 15.8 23.1921 15.6667 23.1254L15.4667 22.9254C15.3333 22.9254 15.2 22.9587 15.0667 23.0254L13.0667 24.0254L10.5667 25.1254C9.9 25.6587 9.26667 26.0921 8.66667 26.4254L7.56667 26.9254L5.86667 28.1254C5.73333 28.2587 5.6 28.2587 5.46667 28.1254L5.26667 28.3254C5.06667 28.3921 4.93333 28.4254 4.86667 28.4254L4.46667 28.6254V28.8254H4.26667L4.06667 29.1254C3.93333 29.3921 3.8 29.5418 3.66667 29.5747C3.53333 29.6076 3.45022 29.6578 3.41733 29.7254C3.39269 29.7805 3.35887 29.831 3.31733 29.8747L3.11733 30.0747L2.81733 30.2747L2.36667 30.2254L1.76667 30.3254L1.36667 30.4254C1.03333 30.4921 0.766667 30.4418 0.566667 30.2747C0.366667 30.1085 0.2 29.8587 0.0666667 29.5254C-0.0666667 29.3254 0 29.1587 0.266667 29.0254L0.366667 28.9254C0.433333 28.8587 0.533333 28.8254 0.666667 28.8254H1.26667L2.06667 28.5254L2.46667 28.4254C2.46667 28.2921 2.5 28.1921 2.56667 28.1254C2.63333 28.0587 2.73333 28.0254 2.86667 28.0254V27.9254C2.80393 27.8012 2.76976 27.6645 2.76667 27.5254C2.69911 27.3921 2.68267 27.2921 2.71733 27.2254C2.75022 27.1587 2.78356 27.1254 2.81733 27.1254H2.86667L2.96667 27.4254C3.03333 27.7587 3.13333 27.8587 3.26667 27.7254L3.36667 27.5254C3.43333 27.3921 3.53333 27.3254 3.66667 27.3254L3.86667 27.5254L4.06667 27.3254L3.96667 27.2254C3.96667 27.1587 4 27.1254 4.06667 27.1254L4.46667 26.7254C4.8 26.3254 5.2 25.9587 5.66667 25.6254C6.6 24.8921 7.6 24.3254 8.66667 23.9254C9 23.5921 9.36667 23.4254 9.76667 23.4254C10.0333 22.9587 10.4333 22.4587 10.9667 21.9254C11.4333 21.5921 11.7667 21.3587 11.9667 21.2254C12.1 20.9587 12.2667 20.8254 12.4667 20.8254H12.5667L12.7667 20.6254C12.9 20.5587 13 20.4921 13.0667 20.4254V19.9254C13.0667 19.5921 13.1 19.3254 13.1667 19.1254C13.2333 18.9254 13.4 18.8254 13.6667 18.8254L14.0667 18.4254C13.9333 18.1587 13.8667 17.8587 13.8667 17.5254H13.7667C13.6333 17.3254 13.5667 17.1254 13.5667 16.9254C13.3667 16.5921 13.2333 16.3254 13.1667 16.1254H12.8667C12.8 16.3254 12.6333 16.4587 12.3667 16.5254L12.2667 16.7254C12 17.1921 11.7667 17.5418 11.5667 17.7747C11.3667 18.0085 11 18.2921 10.4667 18.6254C10.1333 18.9587 9.9 19.3254 9.76667 19.7254C9.7 19.9254 9.7 20.1254 9.76667 20.3254L9.66667 20.5254H9.76667C9.76667 20.6587 9.8 20.7254 9.86667 20.7254H9.96667C10.1 20.7921 10.1667 20.8752 10.1667 20.9747C10.1667 21.1241 10.0667 21.1081 9.86667 21.0747C9.6996 21.0569 9.54239 20.9869 9.41733 20.8747C9.31689 20.7752 9.23333 20.7254 9.16667 20.7254L8.86667 21.0254C8.73333 21.2254 8.6 21.3085 8.46667 21.2747C8.33333 21.2418 8.3 21.1921 8.36667 21.1254L8.46667 21.0254C8.53333 20.8921 8.53333 20.8254 8.46667 20.8254L7.66667 21.0254C7.6 21.0921 7.51689 21.0921 7.41733 21.0254C7.268 20.9254 7.33333 20.8921 7.46667 20.8254L7.96667 20.6254C7.96667 20.5587 7.93333 20.5254 7.86667 20.5254C7.6 20.6587 7.33333 20.6921 7.06667 20.6254L6.56667 20.5254L6.46667 20.4254C6.46667 20.3587 6.5 20.3254 6.56667 20.3254C6.83333 20.3921 7.16667 20.3587 7.56667 20.2254L8.26667 19.9254L9.06667 19.0254L9.16667 18.8254C9.43333 18.2921 9.71689 17.8085 10.0173 17.3747C10.2817 16.9811 10.6014 16.6277 10.9667 16.3254L11.0667 15.9254C11.2 15.6587 11.3333 15.4254 11.4667 15.2254C11.6 15.0254 11.7667 14.7587 11.9667 14.4254L12.2667 14.0254C12.5333 13.6254 12.8333 13.4254 13.1667 13.4254L13.4667 13.1254C13.5333 13.0587 13.5667 12.9587 13.5667 12.8254L13.7667 12.6254L13.6667 12.5254C13.2667 12.1921 13.0667 11.8921 13.0667 11.6254C13 11.1587 13.1502 10.7587 13.5173 10.4254C14.068 9.92539 14.2507 9.94139 14.6173 9.97472C14.9836 10.0085 15.2667 10.1254 15.4667 10.3254L15.6667 10.5254C15.7333 10.5254 15.7667 10.5587 15.7667 10.6254L16.1667 10.8254V11.1254C16.3 11.2587 16.3667 11.3587 16.3667 11.4254C16.5 11.2254 16.7 10.9921 16.9667 10.7254L17.4667 9.12539C17.4667 8.85872 17.5333 8.59206 17.6667 8.32539L17.8667 8.02539V7.82539L18.1667 6.62539H18.3667L18.6667 5.42539C18.7339 5.1969 18.7339 4.95388 18.6667 4.72539L18.2667 3.72539L18.0667 2.92539Z" fill="black"/>
</svg>
